
<svg xmlns="http://www.w3.org/2000/svg" height="1872" width="1404">
    <script type="application/ecmascript"> <![CDATA[
        var visiblePage = 'p1';
        function goToPage(page) {
            document.getElementById(visiblePage).setAttribute('style', 'display: none');
            document.getElementById(page).setAttribute('style', 'display: inline');
            visiblePage = page;
        }
    ]]>
    </script>

    <g id="p1" style="display:inline">
        <filter id="blurMe"><feGaussianBlur in="SourceGraphic" stdDeviation="10" /></filter>
        <!-- SceneLineItemBlock item_id: CrdtId(1, 14) -->
        <!-- Stroke tool: FINELINER_2 color: BLACK thickness_scale: 3.0 -->
        <polyline style="fill:none;stroke:0;stroke-width:3.0;opacity:1" stroke-linecap="round" points=""/>
        <polyline style="fill:none; stroke:rgb(0, 0, 0) ;stroke-width:13.059;opacity:1" stroke-linecap="round" points="271.452,81.848 269.913,82.467 268.769,82.135 267.729,83.695 268.025,86.499 270.088,89.789 267.306,102.516 266.941,106.029 267.373,114.370 267.818,117.488 268.895,119.171 268.724,119.923 270.525,126.102 270.312,127.175 270.656,127.593 271.009,129.376 270.702,130.407 271.182,133.009 270.547,135.525 270.602,136.731 269.969,138.626 269.510,142.604 269.742,148.750 270.286,151.612 269.805,152.789 270.383,153.316 270.563,154.782 271.184,154.636 270.853,154.728 270.053,156.207 270.448,158.088 270.111,158.990 272.418,164.591 274.238,165.369 276.063,163.928 277.371,160.939 277.785,159.056 277.607,154.435 " />
        <!-- SceneLineItemBlock item_id: CrdtId(1, 15) -->
        <!-- Stroke tool: FINELINER_2 color: BLACK thickness_scale: 3.0 -->
        <polyline style="fill:none;stroke:0;stroke-width:3.0;opacity:1" stroke-linecap="round" points=""/>
        <polyline style="fill:none; stroke:rgb(0, 0, 0) ;stroke-width:13.059;opacity:1" stroke-linecap="round" points="265.902,83.151 262.495,80.992 262.656,80.111 264.828,79.251 275.019,73.297 281.175,71.693 285.113,74.434 287.684,76.962 290.519,79.142 295.715,81.522 298.744,83.269 299.682,85.714 299.805,86.996 299.525,89.156 298.541,92.579 296.131,98.247 294.752,102.902 293.333,111.852 292.467,113.143 290.828,114.711 280.901,122.169 278.224,124.643 278.148,125.045 277.054,125.599 275.375,125.937 273.056,125.679 266.824,122.889 265.342,122.687 264.736,124.045 266.698,127.662 " />
        <!-- SceneLineItemBlock item_id: CrdtId(1, 16) -->
        <!-- Stroke tool: FINELINER_2 color: BLACK thickness_scale: 3.0 -->
        <polyline style="fill:none;stroke:0;stroke-width:3.0;opacity:1" stroke-linecap="round" points=""/>
        <polyline style="fill:none; stroke:rgb(0, 0, 0) ;stroke-width:13.059;opacity:1" stroke-linecap="round" points="323.575,140.661 322.465,138.322 323.499,136.910 329.619,133.453 334.797,131.665 334.929,131.386 333.606,131.204 329.011,128.933 325.987,127.968 323.409,128.236 321.262,128.851 318.184,131.040 314.382,135.476 311.052,140.504 308.929,146.893 308.355,151.779 308.317,155.436 308.498,157.529 309.658,159.464 312.364,159.730 315.411,159.049 316.992,158.115 320.298,157.189 326.011,154.120 327.796,152.223 328.719,150.668 329.603,147.185 332.458,139.205 333.218,135.158 334.267,132.981 335.759,131.971 334.791,138.607 332.663,144.949 332.249,149.108 333.058,151.590 334.778,153.980 335.715,154.457 337.693,156.895 339.944,158.719 344.505,160.320 351.530,161.955 351.915,162.785 " />
        <!-- SceneLineItemBlock item_id: CrdtId(1, 17) -->
        <!-- Stroke tool: FINELINER_2 color: BLACK thickness_scale: 3.0 -->
        <polyline style="fill:none;stroke:0;stroke-width:3.0;opacity:1" stroke-linecap="round" points=""/>
        <polyline style="fill:none; stroke:rgb(0, 0, 0) ;stroke-width:13.059;opacity:1" stroke-linecap="round" points="391.220,124.372 390.984,122.019 391.461,120.710 392.711,119.704 394.726,119.463 397.853,119.781 399.079,120.135 401.492,121.520 401.430,121.771 400.870,121.734 399.246,120.975 391.982,119.450 388.449,119.353 384.297,120.326 381.634,121.924 377.888,125.664 375.263,133.345 371.313,140.957 370.734,142.722 370.442,143.834 370.405,147.405 371.143,148.864 373.094,150.796 374.706,151.299 375.634,151.936 381.885,153.951 388.943,155.568 396.466,157.738 399.196,159.186 400.818,161.141 401.595,161.512 403.673,160.686 407.969,157.704 410.764,154.525 " />
        <!-- SceneLineItemBlock item_id: CrdtId(1, 18) -->
        <!-- Stroke tool: FINELINER_2 color: BLACK thickness_scale: 3.0 -->
        <polyline style="fill:none;stroke:0;stroke-width:3.0;opacity:1" stroke-linecap="round" points=""/>
        <polyline style="fill:none; stroke:rgb(0, 0, 0) ;stroke-width:13.059;opacity:1" stroke-linecap="round" points="419.954,88.851 419.782,87.834 420.036,86.906 421.607,84.668 422.461,84.055 422.075,85.305 423.096,90.900 424.519,109.459 428.674,133.619 431.040,144.525 430.932,148.154 430.655,148.506 430.243,148.392 430.284,147.702 426.840,141.511 " />
        <!-- SceneLineItemBlock item_id: CrdtId(1, 19) -->
        <!-- Stroke tool: FINELINER_2 color: BLACK thickness_scale: 3.0 -->
        <polyline style="fill:none;stroke:0;stroke-width:3.0;opacity:1" stroke-linecap="round" points=""/>
        <polyline style="fill:none; stroke:rgb(0, 0, 0) ;stroke-width:13.059;opacity:1" stroke-linecap="round" points="454.687,116.693 454.528,118.924 454.035,120.701 452.398,123.362 448.666,128.160 441.084,135.297 440.333,136.434 436.152,139.045 434.360,141.485 433.736,143.445 434.834,144.340 437.772,145.215 447.376,146.432 452.005,147.371 454.639,148.400 457.942,151.378 458.876,153.536 460.013,156.883 461.066,163.959 460.941,164.702 461.987,166.793 462.601,166.792 462.905,161.024 " />
        <!-- SceneLineItemBlock item_id: CrdtId(1, 20) -->
        <!-- Stroke tool: FINELINER_2 color: BLACK thickness_scale: 3.0 -->
        <polyline style="fill:none;stroke:0;stroke-width:3.0;opacity:1" stroke-linecap="round" points=""/>
        <polyline style="fill:none; stroke:rgb(0, 0, 0) ;stroke-width:13.059;opacity:1" stroke-linecap="round" points="489.783,129.459 490.390,128.229 489.741,127.420 487.864,127.270 486.213,127.613 483.526,129.260 478.519,133.846 474.540,139.632 473.361,142.714 472.899,146.948 473.441,149.365 474.768,151.110 476.048,151.850 477.703,152.241 481.104,151.954 484.456,150.619 489.536,147.986 492.135,145.948 493.819,143.871 " />
        <!-- SceneLineItemBlock item_id: CrdtId(1, 21) -->
        <!-- Stroke tool: FINELINER_2 color: BLACK thickness_scale: 3.0 -->
        <polyline style="fill:none;stroke:0;stroke-width:3.0;opacity:1" stroke-linecap="round" points=""/>
        <polyline style="fill:none; stroke:rgb(0, 0, 0) ;stroke-width:13.059;opacity:1" stroke-linecap="round" points="493.704,142.593 493.208,139.243 493.373,138.640 494.099,138.504 495.397,139.481 495.912,140.774 496.043,142.697 495.546,147.702 495.955,152.114 496.684,154.132 498.279,156.783 500.445,158.988 502.567,160.539 509.159,162.412 516.165,162.572 520.031,161.905 " />
        <!-- SceneLineItemBlock item_id: CrdtId(1, 22) -->
        <!-- Stroke tool: FINELINER_2 color: BLACK thickness_scale: 3.0 -->
        <polyline style="fill:none;stroke:0;stroke-width:3.0;opacity:1" stroke-linecap="round" points=""/>
        <polyline style="fill:none; stroke:rgb(0, 0, 0) ;stroke-width:13.059;opacity:1" stroke-linecap="round" points="612.722,89.982 613.460,87.415 618.146,80.048 618.386,78.603 617.871,76.979 615.414,73.664 612.190,71.584 607.821,70.634 602.647,70.616 599.951,71.530 597.902,73.258 596.722,74.832 589.141,89.416 587.676,93.595 587.218,96.696 587.197,99.540 589.144,118.962 589.161,129.354 588.115,141.256 586.027,157.822 585.801,164.853 586.571,169.060 587.604,171.850 588.644,173.667 591.273,176.771 593.196,179.992 594.165,184.355 594.108,186.748 592.992,179.803 " />
        <!-- SceneLineItemBlock item_id: CrdtId(1, 23) -->
        <!-- Stroke tool: FINELINER_2 color: BLACK thickness_scale: 3.0 -->
        <polyline style="fill:none;stroke:0;stroke-width:3.0;opacity:1" stroke-linecap="round" points=""/>
        <polyline style="fill:none; stroke:rgb(0, 0, 0) ;stroke-width:13.059;opacity:1" stroke-linecap="round" points="572.629,139.199 569.133,137.950 568.726,137.662 568.898,137.425 575.484,137.298 581.957,136.520 593.085,136.123 601.308,136.438 604.663,137.116 605.593,137.779 606.063,138.893 " />
        <!-- SceneLineItemBlock item_id: CrdtId(1, 24) -->
        <!-- Stroke tool: FINELINER_2 color: BLACK thickness_scale: 3.0 -->
        <polyline style="fill:none;stroke:0;stroke-width:3.0;opacity:1" stroke-linecap="round" points=""/>
        <polyline style="fill:none; stroke:rgb(0, 0, 0) ;stroke-width:13.059;opacity:1" stroke-linecap="round" points="637.688,138.153 638.323,136.316 638.164,135.509 637.252,134.762 635.491,134.414 631.955,135.116 628.755,137.333 626.148,140.659 625.038,143.953 624.516,147.561 625.115,151.443 627.766,156.497 629.735,158.348 631.849,159.459 634.856,160.044 637.283,159.832 640.260,159.109 643.109,157.503 644.534,155.821 645.023,152.910 644.274,150.309 642.494,147.754 638.829,144.667 632.898,141.270 630.809,141.068 629.993,141.327 629.967,142.011 630.519,143.211 " />
        <!-- SceneLineItemBlock item_id: CrdtId(1, 25) -->
        <!-- Stroke tool: FINELINER_2 color: BLACK thickness_scale: 3.0 -->
        <polyline style="fill:none;stroke:0;stroke-width:3.0;opacity:1" stroke-linecap="round" points=""/>
        <polyline style="fill:none; stroke:rgb(0, 0, 0) ;stroke-width:13.059;opacity:1" stroke-linecap="round" points="619.923,112.668 619.292,112.165 619.676,109.636 620.014,110.930 621.124,112.475 622.240,113.497 623.748,114.153 " />
        <!-- SceneLineItemBlock item_id: CrdtId(1, 26) -->
        <!-- Stroke tool: FINELINER_2 color: BLACK thickness_scale: 3.0 -->
        <polyline style="fill:none;stroke:0;stroke-width:3.0;opacity:1" stroke-linecap="round" points=""/>
        <polyline style="fill:none; stroke:rgb(0, 0, 0) ;stroke-width:13.059;opacity:1" stroke-linecap="round" points="637.720,116.870 637.783,115.600 638.511,114.043 638.121,114.773 637.831,117.121 637.889,119.713 638.502,120.876 639.663,121.126 " />
        <!-- SceneLineItemBlock item_id: CrdtId(1, 27) -->
        <!-- Stroke tool: FINELINER_2 color: BLACK thickness_scale: 3.0 -->
        <polyline style="fill:none;stroke:0;stroke-width:3.0;opacity:1" stroke-linecap="round" points=""/>
        <polyline style="fill:none; stroke:rgb(0, 0, 0) ;stroke-width:13.059;opacity:1" stroke-linecap="round" points="658.642,130.800 658.418,130.944 658.620,131.094 660.950,131.441 662.078,132.599 662.026,134.690 660.845,140.735 661.027,145.346 662.129,149.184 663.193,151.642 664.872,154.367 666.285,155.624 664.971,149.214 665.124,141.122 665.864,137.767 667.142,134.216 668.537,132.050 670.830,129.904 675.256,127.770 677.405,127.599 678.397,127.813 679.321,128.370 681.787,132.816 684.127,134.430 687.530,135.280 691.589,135.587 " />
        <!-- SceneLineItemBlock item_id: CrdtId(1, 28) -->
        <!-- Stroke tool: FINELINER_2 color: BLACK thickness_scale: 3.0 -->
        <polyline style="fill:none;stroke:0;stroke-width:3.0;opacity:1" stroke-linecap="round" points=""/>
        <polyline style="fill:none; stroke:rgb(0, 0, 0) ;stroke-width:13.059;opacity:1" stroke-linecap="round" points="793.887,87.412 793.135,88.169 791.798,87.872 784.847,82.138 783.621,81.611 781.931,81.525 778.970,82.091 776.378,82.978 771.410,85.618 765.877,89.358 759.546,94.811 753.511,101.326 746.419,110.870 744.676,114.100 743.237,118.490 742.465,126.681 742.936,132.178 744.328,137.451 746.440,140.773 749.238,142.737 753.899,144.375 772.677,147.051 778.596,148.393 789.493,151.534 793.172,152.911 793.796,152.755 794.116,151.887 " />
        <!-- SceneLineItemBlock item_id: CrdtId(1, 29) -->
        <!-- Stroke tool: FINELINER_2 color: BLACK thickness_scale: 3.0 -->
        <polyline style="fill:none;stroke:0;stroke-width:3.0;opacity:1" stroke-linecap="round" points=""/>
        <polyline style="fill:none; stroke:rgb(0, 0, 0) ;stroke-width:13.059;opacity:1" stroke-linecap="round" points="785.279,129.409 793.525,123.774 795.133,123.030 794.516,123.758 795.560,124.951 800.367,126.942 808.626,129.449 812.142,131.510 812.308,133.357 808.248,142.686 807.324,147.653 807.208,150.994 807.649,156.320 808.560,164.276 808.755,164.574 808.843,162.845 808.283,162.807 808.373,162.019 809.669,160.160 " />
        <!-- SceneLineItemBlock item_id: CrdtId(1, 30) -->
        <!-- Stroke tool: FINELINER_2 color: BLACK thickness_scale: 3.0 -->
        <polyline style="fill:none;stroke:0;stroke-width:3.0;opacity:1" stroke-linecap="round" points=""/>
        <polyline style="fill:none; stroke:rgb(0, 0, 0) ;stroke-width:13.059;opacity:1" stroke-linecap="round" points="858.155,130.626 852.145,128.070 848.123,127.475 847.454,127.706 841.788,132.624 837.913,137.797 836.018,141.677 835.434,143.567 834.824,147.018 834.774,149.285 835.378,152.390 836.206,154.310 837.112,155.331 838.617,156.056 840.309,156.069 844.383,155.355 847.938,154.238 851.649,152.379 855.734,149.463 858.120,146.937 859.258,145.240 860.935,141.566 860.861,138.715 860.336,137.492 859.118,136.359 858.445,136.541 857.826,137.392 858.632,137.851 859.394,137.681 860.105,138.466 863.055,143.483 865.784,149.377 867.232,151.517 869.394,153.609 871.957,154.982 875.034,155.232 876.625,154.545 " />
        <!-- SceneLineItemBlock item_id: CrdtId(1, 31) -->
        <!-- Stroke tool: FINELINER_2 color: BLACK thickness_scale: 3.0 -->
        <polyline style="fill:none;stroke:0;stroke-width:3.0;opacity:1" stroke-linecap="round" points=""/>
        <polyline style="fill:none; stroke:rgb(0, 0, 0) ;stroke-width:13.059;opacity:1" stroke-linecap="round" points="841.456,94.883 840.678,92.489 840.963,97.071 841.281,97.910 843.133,98.856 844.314,98.447 " />
        <!-- SceneLineItemBlock item_id: CrdtId(1, 32) -->
        <!-- Stroke tool: FINELINER_2 color: BLACK thickness_scale: 3.0 -->
        <polyline style="fill:none;stroke:0;stroke-width:3.0;opacity:1" stroke-linecap="round" points=""/>
        <polyline style="fill:none; stroke:rgb(0, 0, 0) ;stroke-width:13.059;opacity:1" stroke-linecap="round" points="861.708,96.337 860.783,96.813 860.087,97.630 862.612,101.572 864.399,103.283 " />
        <!-- SceneLineItemBlock item_id: CrdtId(1, 33) -->
        <!-- Stroke tool: FINELINER_2 color: BLACK thickness_scale: 3.0 -->
        <polyline style="fill:none;stroke:0;stroke-width:3.0;opacity:1" stroke-linecap="round" points=""/>
        <polyline style="fill:none; stroke:rgb(0, 0, 0) ;stroke-width:13.059;opacity:1" stroke-linecap="round" points="886.797,122.920 886.372,123.016 886.378,122.472 886.886,122.405 888.755,125.977 894.468,139.421 900.710,151.799 902.626,153.962 903.707,154.293 904.635,154.177 906.861,152.154 908.061,150.222 909.205,146.578 910.118,139.360 910.065,125.249 910.298,122.953 911.672,119.870 912.290,119.554 914.698,116.966 915.415,115.768 915.329,115.169 914.750,114.642 913.221,114.420 912.686,114.997 " />
        <!-- SceneLineItemBlock item_id: CrdtId(1, 34) -->
        <!-- Stroke tool: FINELINER_2 color: BLACK thickness_scale: 3.0 -->
        <polyline style="fill:none;stroke:0;stroke-width:3.0;opacity:1" stroke-linecap="round" points=""/>
        <polyline style="fill:none; stroke:rgb(0, 0, 0) ;stroke-width:13.059;opacity:1" stroke-linecap="round" points="952.339,78.140 951.007,74.976 949.971,74.566 949.471,74.796 950.065,78.084 950.849,88.406 951.406,103.192 950.372,116.095 947.882,130.471 946.999,140.055 947.092,143.978 948.588,150.683 950.830,154.061 951.873,154.720 952.364,154.460 952.653,153.322 952.264,150.854 950.826,146.708 " />
        <!-- SceneLineItemBlock item_id: CrdtId(1, 35) -->
        <!-- Stroke tool: FINELINER_2 color: BLACK thickness_scale: 3.0 -->
        <polyline style="fill:none;stroke:0;stroke-width:3.0;opacity:1" stroke-linecap="round" points=""/>
        <polyline style="fill:none; stroke:rgb(0, 0, 0) ;stroke-width:13.059;opacity:1" stroke-linecap="round" points="974.675,129.711 973.286,128.384 973.362,127.619 974.072,127.377 976.193,127.630 979.291,128.982 982.257,131.080 992.041,125.817 997.479,121.344 999.897,118.565 1000.315,116.499 999.914,115.565 998.476,114.532 991.475,113.410 984.928,113.660 978.979,114.940 974.530,117.271 973.110,118.938 972.756,119.879 971.444,127.582 971.127,134.837 972.185,139.788 974.245,143.056 976.446,145.231 980.081,147.444 984.635,149.192 988.846,150.237 993.747,150.992 1003.814,152.085 1010.340,152.448 1020.555,154.034 " />
        <!-- SceneLineItemBlock item_id: CrdtId(1, 36) -->
        <!-- Stroke tool: FINELINER_2 color: GRAY thickness_scale: 3.0 -->
        <polyline style="fill:none;stroke:1;stroke-width:3.0;opacity:1" stroke-linecap="round" points=""/>
        <polyline style="fill:none; stroke:rgb(125, 125, 125) ;stroke-width:13.059;opacity:1" stroke-linecap="round" points="224.653,189.370 221.561,187.501 221.376,186.861 221.815,185.806 224.249,183.220 226.292,181.590 223.747,183.559 221.280,187.539 216.389,196.949 215.635,200.009 216.145,200.046 217.102,199.225 219.619,198.197 223.369,195.969 225.621,194.310 233.394,188.028 240.048,181.563 245.222,177.764 246.026,177.649 245.420,178.394 238.198,183.458 232.715,188.198 231.336,190.144 226.367,195.455 225.877,196.475 227.728,195.595 231.961,195.319 237.033,194.033 244.995,190.927 249.789,188.090 251.850,185.403 251.815,183.997 251.080,183.869 246.551,186.170 238.279,193.533 234.016,198.824 233.831,199.831 233.151,200.842 233.263,201.194 234.044,201.204 238.314,199.821 244.962,196.415 252.898,190.923 255.502,188.662 256.148,187.869 256.322,186.992 255.374,187.770 252.112,199.371 253.325,198.652 257.053,197.813 262.698,195.468 272.489,190.732 275.442,188.840 273.521,190.592 269.753,197.565 276.388,195.746 281.528,193.365 285.773,190.452 287.498,188.978 288.429,187.234 288.263,186.001 288.025,185.979 285.244,188.210 283.042,190.936 281.446,193.445 280.612,195.871 280.814,196.345 287.469,194.399 294.680,190.725 296.281,190.201 300.144,187.696 302.156,185.662 300.262,186.750 298.760,188.442 294.618,195.170 293.650,197.541 293.664,198.009 294.008,198.185 299.271,196.934 304.388,195.092 313.686,190.600 318.170,188.087 319.941,186.336 320.114,185.515 318.145,186.508 316.921,187.711 311.174,194.553 309.816,196.859 310.181,197.096 314.486,196.251 318.913,194.734 328.901,189.863 329.533,190.045 330.176,189.214 330.160,188.371 329.517,189.218 328.599,189.764 323.344,196.887 323.721,197.277 326.410,197.009 328.772,196.506 332.760,195.091 339.988,191.952 346.542,188.479 352.208,184.817 349.376,186.808 341.181,196.732 341.070,197.406 346.364,197.064 350.661,195.695 362.386,190.202 364.840,188.732 366.580,187.157 363.894,188.532 360.321,191.689 356.075,196.596 352.881,201.295 352.766,202.487 353.196,203.120 356.745,204.098 358.542,203.959 361.939,202.739 367.539,199.383 373.359,194.273 377.542,189.373 380.935,186.013 381.126,186.538 379.039,188.839 378.220,190.617 376.004,193.905 370.424,199.922 370.102,200.514 370.411,200.808 377.978,198.511 383.734,195.861 391.226,190.890 394.863,187.556 395.718,186.322 395.650,185.983 395.421,186.388 394.415,186.829 391.012,193.716 385.781,198.866 385.753,198.523 386.280,198.355 387.120,197.222 387.647,197.301 396.143,194.815 403.370,192.013 410.643,188.465 414.666,186.058 417.899,184.832 419.339,184.607 419.471,184.858 418.813,185.609 417.267,186.131 414.022,189.584 403.216,198.055 402.860,199.310 406.097,199.876 408.699,199.808 411.530,199.385 416.329,197.864 424.115,194.150 434.481,187.999 439.732,183.332 443.327,180.753 434.320,187.093 429.698,191.250 422.617,196.771 427.896,196.787 431.376,196.064 434.893,195.087 443.425,191.709 448.252,188.359 451.833,184.694 454.371,182.686 454.651,182.756 454.547,182.981 451.270,188.143 450.527,189.879 449.315,191.446 446.031,195.005 442.149,197.686 441.497,198.847 442.556,198.701 445.427,199.266 447.096,199.114 449.311,198.666 451.910,197.560 460.213,193.544 462.296,191.843 465.664,190.032 474.683,183.374 472.783,184.734 468.651,186.842 464.732,189.666 460.314,193.640 458.109,196.331 457.928,197.204 458.419,197.869 458.731,197.619 461.712,198.125 465.897,197.648 470.868,195.757 474.111,194.109 479.123,190.831 479.379,190.375 479.166,190.300 473.797,192.893 471.758,194.652 472.015,195.236 473.344,195.904 476.515,196.257 " />
        <!-- SceneLineItemBlock item_id: CrdtId(1, 37) -->
        <!-- Stroke tool: FINELINER_2 color: GRAY thickness_scale: 3.0 -->
        <polyline style="fill:none;stroke:1;stroke-width:3.0;opacity:1" stroke-linecap="round" points=""/>
        <polyline style="fill:none; stroke:rgb(125, 125, 125) ;stroke-width:13.059;opacity:1" stroke-linecap="round" points="478.813,184.103 482.518,181.269 488.629,175.422 487.095,176.947 486.095,178.742 483.006,186.927 482.658,188.624 482.948,190.811 483.347,191.305 484.825,191.219 487.222,189.871 491.729,185.820 496.853,180.533 501.509,174.381 499.678,176.684 497.640,180.894 494.926,188.319 495.064,191.025 495.821,191.506 498.307,191.182 501.536,189.733 506.627,185.097 511.979,179.108 512.798,176.816 512.296,175.782 511.906,175.771 509.415,177.971 506.703,182.544 506.023,184.943 506.469,187.029 507.490,187.875 510.378,188.477 513.154,188.126 515.411,187.185 517.689,185.412 523.442,179.162 522.676,180.492 521.933,185.204 519.688,191.375 519.309,193.192 520.052,193.298 522.732,192.306 527.592,188.988 532.129,184.220 535.568,181.125 536.528,179.811 536.877,178.318 535.525,179.520 532.321,184.102 529.422,190.248 529.246,192.036 534.812,190.154 538.818,187.344 546.020,181.129 547.223,179.198 547.310,177.915 546.881,177.421 545.667,178.547 543.622,183.398 543.399,184.519 543.670,186.351 544.499,187.521 547.178,188.536 548.650,188.314 549.929,187.704 551.275,186.358 557.618,177.618 557.121,184.565 557.536,186.372 558.179,187.084 559.412,187.553 561.435,187.266 562.531,186.499 564.884,185.611 567.736,183.821 567.494,183.282 566.500,182.937 564.120,183.035 558.961,185.396 556.305,187.911 555.014,190.259 554.279,192.748 555.842,192.327 556.802,192.502 564.290,188.774 565.398,187.592 563.277,188.648 " />
        <!-- SceneLineItemBlock item_id: CrdtId(1, 38) -->
        <!-- Stroke tool: FINELINER_2 color: GRAY thickness_scale: 3.0 -->
        <polyline style="fill:none;stroke:1;stroke-width:3.0;opacity:1" stroke-linecap="round" points=""/>
        <polyline style="fill:none; stroke:rgb(125, 125, 125) ;stroke-width:13.059;opacity:1" stroke-linecap="round" points="615.129,175.418 612.341,173.121 613.429,173.754 613.751,175.254 613.260,179.497 611.455,187.336 611.739,188.654 612.767,189.816 613.931,189.648 615.118,188.960 624.745,180.636 628.434,176.306 630.940,172.730 630.839,172.266 625.161,177.008 624.050,178.337 622.343,181.638 620.900,185.033 620.271,187.550 620.333,189.073 620.901,189.785 621.812,190.026 625.301,189.427 627.444,188.657 634.898,183.311 638.263,179.836 639.951,177.440 639.908,176.875 639.261,176.389 637.772,176.348 636.270,177.809 634.076,181.877 632.817,186.111 632.366,189.263 632.426,188.987 633.277,189.081 636.028,188.368 647.611,181.100 650.248,178.597 651.521,176.342 650.701,176.448 648.935,178.138 645.512,182.739 643.528,186.447 642.023,191.019 641.933,192.968 642.503,194.274 643.721,194.798 646.862,195.098 650.472,194.537 654.760,192.750 659.227,190.234 662.601,187.756 664.609,185.737 666.749,182.382 669.272,177.008 669.275,175.683 666.662,177.930 663.404,181.809 659.430,187.392 656.119,193.002 653.814,195.746 653.292,197.120 654.774,196.348 655.625,196.484 657.643,195.851 661.674,194.074 671.533,187.534 678.028,182.157 682.258,178.152 686.274,172.908 686.525,172.138 685.724,173.464 681.001,178.119 666.518,195.345 668.269,194.700 673.555,193.717 681.946,191.192 690.429,187.168 696.930,182.158 702.348,175.945 703.087,174.921 703.426,173.762 692.763,180.785 689.206,184.364 685.783,188.671 684.003,192.202 683.997,192.598 684.384,192.756 685.941,191.930 689.077,191.070 693.783,189.154 708.859,179.966 712.592,177.358 714.135,175.822 720.514,171.647 720.778,171.789 718.009,173.587 707.356,184.340 707.145,185.468 710.185,185.218 711.112,185.595 718.936,182.889 720.844,181.727 724.473,180.328 729.906,177.088 736.027,171.785 731.834,174.004 727.843,176.574 723.172,180.200 719.652,184.599 719.228,185.552 719.661,185.825 722.752,184.960 726.594,184.731 731.227,182.695 738.774,178.499 744.408,174.597 746.841,172.217 746.317,172.199 744.974,173.081 732.483,185.600 730.298,188.974 730.210,189.482 730.589,189.900 732.080,189.987 732.943,189.468 735.101,189.027 738.268,187.535 744.174,183.823 748.414,181.937 750.888,180.345 756.406,175.545 753.896,176.876 750.290,180.199 742.418,189.571 741.740,190.987 743.665,190.313 749.866,189.423 753.285,188.350 763.766,183.667 770.573,178.929 773.911,175.654 775.003,173.867 762.729,186.320 764.414,184.817 773.682,180.680 784.850,175.047 791.756,171.175 786.720,174.829 777.409,184.198 775.213,187.017 774.698,188.186 774.875,188.542 776.721,189.109 779.754,189.286 783.467,188.851 786.210,188.097 795.449,183.616 799.304,180.805 800.444,180.355 807.257,171.879 807.828,171.498 808.194,171.620 804.908,176.195 798.908,182.014 792.665,186.746 785.940,190.987 788.005,189.566 788.729,188.610 794.770,188.396 797.837,187.607 812.123,182.183 816.340,180.928 820.093,178.754 821.368,177.676 821.646,177.173 821.420,176.968 817.786,178.830 809.078,184.412 804.957,187.826 803.624,189.630 803.392,190.638 803.604,191.501 805.400,192.435 809.278,192.266 815.864,190.225 820.450,187.305 825.026,183.099 833.189,174.744 829.700,177.169 827.521,179.176 822.467,184.225 820.790,186.443 821.238,187.318 824.463,187.530 828.269,186.540 834.351,183.902 849.096,177.162 851.610,175.452 850.030,176.268 842.437,182.672 839.557,184.577 836.803,187.207 839.270,185.851 845.119,184.475 852.496,181.528 860.585,176.837 862.882,175.156 863.213,174.458 859.744,175.605 853.215,179.299 842.698,187.879 841.475,189.754 841.678,190.843 843.945,191.598 848.412,190.656 853.273,188.493 861.584,182.913 863.924,180.964 868.517,175.991 874.428,170.457 875.014,169.587 874.876,169.387 873.801,170.370 873.329,170.305 871.969,172.036 865.694,176.540 859.070,182.262 855.974,185.738 854.672,187.821 854.215,189.879 854.515,190.669 855.169,190.625 857.074,189.512 859.765,188.804 861.711,187.671 872.544,183.005 876.926,182.055 879.838,180.350 884.970,178.382 892.013,174.896 887.786,177.102 876.452,185.683 878.186,184.973 880.162,185.171 882.659,184.503 886.272,181.735 888.085,179.594 " />
        <!-- SceneLineItemBlock item_id: CrdtId(1, 39) -->
        <!-- Stroke tool: FINELINER_2 color: GRAY thickness_scale: 3.0 -->
        <polyline style="fill:none;stroke:1;stroke-width:3.0;opacity:1" stroke-linecap="round" points=""/>
        <polyline style="fill:none; stroke:rgb(125, 125, 125) ;stroke-width:13.059;opacity:1" stroke-linecap="round" points="882.834,174.684 883.996,172.608 884.622,170.710 884.814,168.527 884.495,166.499 883.907,167.174 880.954,173.748 876.776,184.423 875.891,188.495 876.282,189.422 884.264,182.431 896.177,170.203 895.608,171.206 894.770,171.794 889.489,177.927 884.493,182.062 886.901,180.331 898.366,177.722 904.918,175.397 908.008,173.396 906.124,174.288 903.547,177.498 901.686,180.422 901.409,182.090 901.576,183.411 902.875,185.498 904.295,186.119 905.182,186.078 908.582,184.518 914.105,180.341 918.941,175.605 922.044,171.627 918.473,174.954 909.714,184.638 906.911,188.167 908.549,187.006 916.391,182.824 934.787,171.552 936.285,170.493 936.974,169.590 936.691,168.958 933.768,170.232 929.518,173.260 923.046,179.930 923.470,180.044 924.075,179.670 930.903,179.599 932.875,178.957 936.340,178.503 940.531,177.259 943.612,175.353 945.784,172.788 946.113,172.742 945.789,173.555 946.364,176.522 946.276,178.306 945.029,182.446 945.843,183.873 946.235,183.404 956.287,177.918 960.857,175.074 966.704,170.891 969.389,168.283 967.256,169.808 962.011,175.412 956.051,182.502 955.183,183.973 957.050,182.514 962.240,180.817 978.581,172.973 979.379,172.482 979.937,171.365 979.749,171.153 978.638,171.575 974.804,174.766 968.264,181.115 967.234,182.561 967.277,183.370 967.916,184.426 969.126,185.402 970.320,185.489 972.819,185.073 974.556,184.168 979.818,181.128 987.740,175.731 990.331,173.886 995.325,168.109 992.368,169.828 989.609,172.154 980.174,182.121 977.597,185.382 976.193,187.752 976.045,188.711 976.680,189.228 980.474,188.174 991.392,183.199 998.285,179.121 1000.640,177.259 1002.520,175.244 1004.329,172.617 1004.448,172.209 1004.224,172.203 998.798,178.657 996.386,180.914 994.541,182.143 994.527,182.463 995.346,182.654 996.058,182.344 997.090,182.855 1000.046,182.427 1005.324,180.890 1009.289,178.947 1011.760,176.978 1013.481,174.317 1014.366,171.257 1014.028,170.417 1013.556,170.325 1010.520,171.716 1008.397,173.836 1003.842,180.591 1002.081,184.409 1002.183,185.954 1003.392,186.656 1006.847,186.402 1009.540,185.634 1017.949,181.104 1024.516,176.620 1029.285,172.323 1035.365,165.601 1027.987,175.782 1023.580,181.296 1023.142,182.254 1023.350,182.723 1024.934,183.323 1027.366,183.470 1031.910,182.648 1038.644,179.218 1043.657,175.749 1046.627,173.036 1047.277,171.506 1046.831,170.211 1046.263,169.922 1044.355,170.888 1042.890,172.366 1036.245,177.348 1034.495,179.347 1034.002,180.785 1034.466,181.309 1035.887,181.896 1038.195,182.180 1041.621,182.044 1048.078,180.697 1050.570,179.841 1055.200,177.345 1057.906,175.081 1060.802,171.968 1061.163,171.181 1060.845,170.590 1053.782,175.643 1049.302,179.599 1048.907,180.265 1048.819,180.983 1049.316,181.419 1051.506,182.219 1055.422,181.753 1058.416,180.471 1063.051,177.668 1070.104,171.283 1072.625,168.101 1072.776,167.437 1071.947,167.752 1069.774,169.529 1062.034,178.613 1060.359,181.993 1060.791,184.111 1061.746,184.978 1064.096,185.473 1068.393,184.511 1077.332,180.529 1081.376,178.146 1083.664,176.359 1088.938,171.536 1092.054,167.877 1089.788,169.691 1082.271,178.024 1080.367,179.451 1078.634,182.577 1078.987,182.703 1082.866,181.434 1088.238,178.856 1094.032,175.841 1095.948,174.448 1101.533,171.342 1101.885,170.929 1101.715,170.575 1099.732,171.357 1095.207,173.917 1089.609,177.777 1089.243,178.585 1092.115,179.907 1094.491,179.996 1097.714,179.695 1102.422,178.103 1103.670,177.509 1105.326,175.568 1106.707,171.301 1106.091,172.660 1101.359,178.363 1100.876,179.417 1101.798,180.627 1103.055,180.954 1103.231,179.958 1104.813,177.642 1105.743,175.174 1106.288,175.351 1107.568,174.932 1106.133,177.055 1104.696,180.184 1104.776,180.801 1105.514,181.126 1107.774,180.876 " />
        <!-- SceneLineItemBlock item_id: CrdtId(1, 40) -->
        <!-- SceneLineItemBlock item_id: CrdtId(1, 42) -->
        <!-- Stroke tool: FINELINER_2 color: BLACK thickness_scale: 2.0 -->
        <polyline style="fill:none;stroke:0;stroke-width:2.0;opacity:1" stroke-linecap="round" points=""/>
        <polyline style="fill:none; stroke:rgb(0, 0, 0) ;stroke-width:5.573;opacity:1" stroke-linecap="round" points="175.903,273.238 174.594,273.684 175.720,273.390 181.115,273.545 185.392,275.067 " />
        <!-- SceneLineItemBlock item_id: CrdtId(1, 43) -->
        <!-- Stroke tool: FINELINER_2 color: BLACK thickness_scale: 2.0 -->
        <polyline style="fill:none;stroke:0;stroke-width:2.0;opacity:1" stroke-linecap="round" points=""/>
        <polyline style="fill:none; stroke:rgb(0, 0, 0) ;stroke-width:5.573;opacity:1" stroke-linecap="round" points="210.361,261.707 210.118,260.325 209.576,259.857 209.850,259.722 209.717,259.429 210.066,259.805 209.820,260.091 211.088,272.207 212.690,278.405 214.408,289.533 214.340,291.771 214.673,292.356 214.222,294.735 213.689,294.937 214.244,293.964 213.696,293.738 " />
        <!-- SceneLineItemBlock item_id: CrdtId(1, 44) -->
        <!-- Stroke tool: FINELINER_2 color: BLACK thickness_scale: 2.0 -->
        <polyline style="fill:none;stroke:0;stroke-width:2.0;opacity:1" stroke-linecap="round" points=""/>
        <polyline style="fill:none; stroke:rgb(0, 0, 0) ;stroke-width:5.573;opacity:1" stroke-linecap="round" points="212.436,259.943 211.525,258.673 211.920,257.601 213.661,255.933 214.731,255.610 214.510,255.310 214.699,255.608 214.358,256.340 214.820,256.585 222.462,258.561 228.083,259.195 232.991,259.206 238.350,258.671 241.200,258.066 242.987,257.220 238.563,257.277 237.724,258.119 238.797,260.173 240.611,261.962 241.795,264.254 241.885,269.645 241.176,270.839 241.490,271.527 241.488,273.828 240.836,279.242 241.428,280.895 241.008,281.667 241.028,284.699 242.504,289.043 245.062,291.829 244.250,292.084 244.383,292.271 242.914,292.162 241.180,291.735 241.096,291.399 241.540,291.255 241.151,290.718 240.845,291.072 240.236,290.612 237.045,290.084 234.586,290.359 232.292,290.095 229.297,290.460 222.715,290.488 213.676,289.989 207.119,290.333 206.063,289.906 203.870,290.301 203.303,289.984 203.559,290.377 204.338,290.260 204.903,290.590 206.592,290.163 208.824,290.199 " />
        <!-- SceneLineItemBlock item_id: CrdtId(1, 45) -->
        <!-- Stroke tool: FINELINER_2 color: BLACK thickness_scale: 2.0 -->
        <polyline style="fill:none;stroke:0;stroke-width:2.0;opacity:1" stroke-linecap="round" points=""/>
        <polyline style="fill:none; stroke:rgb(0, 0, 0) ;stroke-width:5.573;opacity:1" stroke-linecap="round" points="290.767,250.647 291.366,249.516 289.139,248.241 287.199,245.195 285.363,243.290 283.266,242.081 280.384,241.380 276.872,242.007 271.380,244.483 265.694,249.598 264.646,251.440 262.863,253.623 262.040,256.439 262.482,258.206 263.606,259.435 264.292,259.934 266.697,260.565 272.585,261.656 277.859,263.716 281.561,267.194 283.071,269.723 283.189,270.805 284.723,273.660 285.912,277.311 286.001,278.710 286.678,279.822 286.724,280.826 285.932,282.078 285.364,282.166 284.279,283.288 280.422,285.906 275.760,287.684 270.493,287.687 267.454,286.427 267.214,285.198 269.816,283.907 272.587,283.535 274.514,283.745 " />
        <!-- SceneLineItemBlock item_id: CrdtId(1, 46) -->
        <!-- Stroke tool: FINELINER_2 color: BLACK thickness_scale: 2.0 -->
        <polyline style="fill:none;stroke:0;stroke-width:2.0;opacity:1" stroke-linecap="round" points=""/>
        <polyline style="fill:none; stroke:rgb(0, 0, 0) ;stroke-width:5.573;opacity:1" stroke-linecap="round" points="314.355,276.625 313.354,275.404 310.475,273.042 307.680,272.567 305.073,273.527 303.246,274.696 301.968,275.874 301.777,276.947 301.186,277.434 300.600,278.618 299.942,281.911 300.312,284.414 301.826,286.090 303.711,287.466 308.279,289.362 313.739,288.935 316.557,287.232 318.530,285.095 319.259,282.732 319.214,281.248 318.778,278.865 316.930,275.184 315.316,272.841 313.231,271.304 311.735,270.700 309.747,270.589 308.323,270.809 307.390,271.320 306.641,272.384 306.584,273.130 307.717,275.142 " />
        <!-- SceneLineItemBlock item_id: CrdtId(1, 47) -->
        <!-- Stroke tool: FINELINER_2 color: BLACK thickness_scale: 2.0 -->
        <polyline style="fill:none;stroke:0;stroke-width:2.0;opacity:1" stroke-linecap="round" points=""/>
        <polyline style="fill:none; stroke:rgb(0, 0, 0) ;stroke-width:5.573;opacity:1" stroke-linecap="round" points="336.575,275.266 335.518,272.257 335.707,274.046 335.319,275.087 337.690,281.767 339.582,284.826 340.964,286.439 342.303,287.060 343.715,287.147 345.997,285.891 348.209,283.431 350.881,278.902 351.570,273.042 351.320,269.471 350.763,268.037 350.816,265.808 350.462,265.360 350.791,265.547 351.366,268.888 352.444,272.239 " />
        <!-- SceneLineItemBlock item_id: CrdtId(1, 48) -->
        <!-- Stroke tool: FINELINER_2 color: BLACK thickness_scale: 2.0 -->
        <polyline style="fill:none;stroke:0;stroke-width:2.0;opacity:1" stroke-linecap="round" points=""/>
        <polyline style="fill:none; stroke:rgb(0, 0, 0) ;stroke-width:5.573;opacity:1" stroke-linecap="round" points="389.446,266.778 384.974,266.834 378.613,268.182 376.276,269.198 376.291,269.862 377.584,270.633 377.983,270.396 378.323,270.935 380.759,272.137 386.421,273.310 388.928,274.496 392.027,277.690 393.234,280.043 393.790,282.203 392.923,284.276 389.911,287.200 386.787,288.821 384.741,289.518 381.267,289.766 376.509,289.260 373.805,288.474 374.299,287.912 375.352,287.664 " />
        <!-- SceneLineItemBlock item_id: CrdtId(1, 49) -->
        <!-- Stroke tool: FINELINER_2 color: BLACK thickness_scale: 2.0 -->
        <polyline style="fill:none;stroke:0;stroke-width:2.0;opacity:1" stroke-linecap="round" points=""/>
        <polyline style="fill:none; stroke:rgb(0, 0, 0) ;stroke-width:5.573;opacity:1" stroke-linecap="round" points="422.915,280.080 424.348,276.275 423.766,273.455 422.121,272.538 420.266,272.242 417.320,272.494 415.433,273.211 412.530,274.669 410.353,276.490 407.157,280.432 406.262,282.669 406.349,284.288 407.023,285.171 408.764,286.448 413.121,286.824 415.941,286.619 417.939,286.284 423.025,284.694 424.694,283.826 426.348,282.286 426.479,280.389 426.155,279.908 425.494,279.681 425.087,280.047 424.880,281.171 425.251,283.209 427.136,285.502 429.132,286.863 430.940,287.905 434.665,288.031 436.774,287.793 438.231,287.118 " />
        <!-- SceneLineItemBlock item_id: CrdtId(1, 50) -->
        <!-- Stroke tool: FINELINER_2 color: BLACK thickness_scale: 2.0 -->
        <polyline style="fill:none;stroke:0;stroke-width:2.0;opacity:1" stroke-linecap="round" points=""/>
        <polyline style="fill:none; stroke:rgb(0, 0, 0) ;stroke-width:5.573;opacity:1" stroke-linecap="round" points="404.943,254.640 404.645,253.989 405.186,252.722 406.643,250.755 407.597,250.217 406.914,251.361 406.531,253.268 407.127,256.537 407.568,257.318 409.660,259.060 411.729,259.448 " />
        <!-- SceneLineItemBlock item_id: CrdtId(1, 51) -->
        <!-- Stroke tool: FINELINER_2 color: BLACK thickness_scale: 2.0 -->
        <polyline style="fill:none;stroke:0;stroke-width:2.0;opacity:1" stroke-linecap="round" points=""/>
        <polyline style="fill:none; stroke:rgb(0, 0, 0) ;stroke-width:5.573;opacity:1" stroke-linecap="round" points="424.686,256.957 424.314,256.928 424.325,257.295 424.299,257.086 424.854,257.384 426.356,258.571 429.393,261.854 " />
        <!-- SceneLineItemBlock item_id: CrdtId(1, 52) -->
        <!-- Stroke tool: FINELINER_2 color: BLACK thickness_scale: 2.0 -->
        <polyline style="fill:none;stroke:0;stroke-width:2.0;opacity:1" stroke-linecap="round" points=""/>
        <polyline style="fill:none; stroke:rgb(0, 0, 0) ;stroke-width:5.573;opacity:1" stroke-linecap="round" points="466.764,272.403 465.068,272.317 461.862,271.244 461.602,271.387 461.215,270.988 460.392,271.059 456.522,272.822 455.558,274.172 454.285,276.234 454.123,278.204 455.473,281.202 458.465,284.616 460.752,286.348 462.464,287.208 466.370,287.921 474.337,286.643 479.888,284.710 " />
        <!-- SceneLineItemBlock item_id: CrdtId(1, 53) -->
        <!-- Stroke tool: FINELINER_2 color: BLACK thickness_scale: 2.0 -->
        <polyline style="fill:none;stroke:0;stroke-width:2.0;opacity:1" stroke-linecap="round" points=""/>
        <polyline style="fill:none; stroke:rgb(0, 0, 0) ;stroke-width:5.573;opacity:1" stroke-linecap="round" points="486.840,237.784 486.300,235.467 486.537,233.362 491.779,252.036 495.629,262.737 496.914,269.249 496.546,276.094 496.915,278.158 497.745,279.697 498.817,280.182 500.149,275.321 " />
        <!-- SceneLineItemBlock item_id: CrdtId(1, 54) -->
        <!-- Stroke tool: FINELINER_2 color: BLACK thickness_scale: 2.0 -->
        <polyline style="fill:none;stroke:0;stroke-width:2.0;opacity:1" stroke-linecap="round" points=""/>
        <polyline style="fill:none; stroke:rgb(0, 0, 0) ;stroke-width:5.573;opacity:1" stroke-linecap="round" points="516.739,262.769 519.428,262.199 522.646,262.389 522.982,263.133 522.261,263.908 519.793,265.835 517.245,267.314 506.907,272.777 504.805,273.314 505.432,272.897 505.799,273.045 508.990,275.761 516.804,280.860 524.327,284.010 529.975,285.804 533.497,286.276 536.288,286.072 " />
        <!-- SceneLineItemBlock item_id: CrdtId(1, 55) -->
        <!-- Stroke tool: FINELINER_2 color: BLACK thickness_scale: 2.0 -->
        <polyline style="fill:none;stroke:0;stroke-width:2.0;opacity:1" stroke-linecap="round" points=""/>
        <polyline style="fill:none; stroke:rgb(0, 0, 0) ;stroke-width:5.573;opacity:1" stroke-linecap="round" points="177.222,336.158 176.046,335.487 174.015,334.956 173.429,335.555 173.804,336.277 179.157,335.128 179.734,335.434 182.537,335.077 188.705,335.065 193.350,336.132 " />
        <!-- SceneLineItemBlock item_id: CrdtId(1, 56) -->
        <!-- Stroke tool: FINELINER_2 color: BLACK thickness_scale: 2.0 -->
        <polyline style="fill:none;stroke:0;stroke-width:2.0;opacity:1" stroke-linecap="round" points=""/>
        <polyline style="fill:none; stroke:rgb(0, 0, 0) ;stroke-width:5.573;opacity:1" stroke-linecap="round" points="223.198,323.260 222.830,322.497 223.940,321.731 223.793,321.911 224.163,322.217 224.876,324.056 226.075,330.142 226.282,336.740 226.842,342.361 226.695,343.769 228.206,347.291 230.310,348.501 230.856,349.140 231.532,349.078 232.167,349.549 232.511,348.530 " />
        <!-- SceneLineItemBlock item_id: CrdtId(1, 57) -->
        <!-- Stroke tool: FINELINER_2 color: BLACK thickness_scale: 2.0 -->
        <polyline style="fill:none;stroke:0;stroke-width:2.0;opacity:1" stroke-linecap="round" points=""/>
        <polyline style="fill:none; stroke:rgb(0, 0, 0) ;stroke-width:5.573;opacity:1" stroke-linecap="round" points="224.679,322.135 224.431,320.338 224.698,318.783 225.024,317.672 226.104,317.258 229.008,317.616 234.556,316.864 235.447,317.185 239.897,316.867 244.543,317.391 250.911,319.863 252.706,321.082 253.984,322.634 254.851,324.542 254.802,327.904 253.430,332.333 253.294,334.906 254.071,337.139 254.850,338.224 255.800,339.123 258.521,340.619 258.645,341.547 257.669,344.308 256.608,345.984 253.158,353.818 252.664,353.916 251.993,353.340 244.397,350.862 240.070,350.275 235.000,351.446 232.022,353.142 231.583,353.659 231.691,354.307 233.022,355.090 234.344,355.235 " />
        <!-- SceneLineItemBlock item_id: CrdtId(1, 58) -->
        <!-- Stroke tool: FINELINER_2 color: BLACK thickness_scale: 2.0 -->
        <polyline style="fill:none;stroke:0;stroke-width:2.0;opacity:1" stroke-linecap="round" points=""/>
        <polyline style="fill:none; stroke:rgb(0, 0, 0) ;stroke-width:5.573;opacity:1" stroke-linecap="round" points="278.737,319.972 277.690,317.841 277.800,315.422 278.962,313.231 279.976,312.401 280.611,312.330 279.560,314.634 279.337,324.584 280.337,331.855 281.813,336.503 282.567,340.154 283.095,340.925 283.163,344.143 282.949,344.397 283.417,345.088 283.535,344.762 282.633,343.764 281.170,341.016 278.779,333.943 276.197,321.765 276.189,319.750 275.254,316.447 274.971,313.783 275.306,311.795 276.109,309.864 281.621,308.188 286.507,305.043 289.760,303.649 292.360,304.290 294.459,306.236 296.044,308.593 298.401,313.900 300.592,324.377 302.027,333.493 304.014,340.380 303.909,341.426 302.637,343.339 299.954,344.369 295.346,345.093 289.454,345.366 282.595,344.348 288.141,344.954 291.199,344.832 " />
        <!-- SceneLineItemBlock item_id: CrdtId(1, 59) -->
        <!-- Stroke tool: FINELINER_2 color: BLACK thickness_scale: 2.0 -->
        <polyline style="fill:none;stroke:0;stroke-width:2.0;opacity:1" stroke-linecap="round" points=""/>
        <polyline style="fill:none; stroke:rgb(0, 0, 0) ;stroke-width:5.573;opacity:1" stroke-linecap="round" points="332.481,338.872 332.402,338.474 335.290,333.147 335.108,332.234 334.657,331.772 331.422,331.271 324.888,331.856 321.963,333.351 320.864,333.432 319.539,335.796 317.979,340.364 318.458,342.443 319.766,343.616 321.884,343.874 323.818,343.720 325.895,343.007 328.696,341.231 331.411,338.108 331.557,336.187 331.075,335.780 330.266,336.749 330.441,338.911 331.580,341.224 332.781,342.045 334.973,342.955 337.959,343.617 341.817,343.767 343.185,343.616 343.515,343.207 344.035,343.535 343.680,343.716 " />
        <!-- SceneLineItemBlock item_id: CrdtId(1, 60) -->
        <!-- Stroke tool: FINELINER_2 color: BLACK thickness_scale: 2.0 -->
        <polyline style="fill:none;stroke:0;stroke-width:2.0;opacity:1" stroke-linecap="round" points=""/>
        <polyline style="fill:none; stroke:rgb(0, 0, 0) ;stroke-width:5.573;opacity:1" stroke-linecap="round" points="362.501,305.348 363.292,304.637 362.898,305.209 362.449,307.590 361.932,313.205 361.345,322.875 361.397,329.767 362.092,336.280 363.775,340.079 367.263,343.388 372.060,346.024 380.837,347.067 385.308,346.749 387.582,346.205 " />
        <!-- SceneLineItemBlock item_id: CrdtId(1, 61) -->
        <!-- Stroke tool: FINELINER_2 color: BLACK thickness_scale: 2.0 -->
        <polyline style="fill:none;stroke:0;stroke-width:2.0;opacity:1" stroke-linecap="round" points=""/>
        <polyline style="fill:none; stroke:rgb(0, 0, 0) ;stroke-width:5.573;opacity:1" stroke-linecap="round" points="358.724,329.391 355.986,326.963 360.251,328.209 366.599,328.881 372.402,328.991 377.781,329.536 380.074,330.059 " />
        <!-- SceneLineItemBlock item_id: CrdtId(1, 62) -->
        <!-- Stroke tool: FINELINER_2 color: BLACK thickness_scale: 2.0 -->
        <polyline style="fill:none;stroke:0;stroke-width:2.0;opacity:1" stroke-linecap="round" points=""/>
        <polyline style="fill:none; stroke:rgb(0, 0, 0) ;stroke-width:5.573;opacity:1" stroke-linecap="round" points="404.000,334.889 407.880,329.910 408.035,329.153 405.799,330.452 404.837,330.387 402.211,330.994 399.330,332.694 398.115,335.349 397.748,337.133 398.245,340.042 401.218,341.991 402.747,342.538 405.367,342.887 409.286,342.890 414.579,341.988 417.984,340.728 420.138,339.569 421.957,337.549 421.798,336.204 420.487,334.012 417.482,331.506 411.417,328.742 407.009,327.523 398.310,326.604 396.623,327.576 397.078,328.513 398.671,330.413 402.346,333.152 " />
        <!-- SceneLineItemBlock item_id: CrdtId(1, 63) -->
        <!-- Stroke tool: FINELINER_2 color: BLACK thickness_scale: 2.0 -->
        <polyline style="fill:none;stroke:0;stroke-width:2.0;opacity:1" stroke-linecap="round" points=""/>
        <polyline style="fill:none; stroke:rgb(0, 0, 0) ;stroke-width:5.573;opacity:1" stroke-linecap="round" points="441.180,330.883 440.337,330.170 439.182,330.068 438.772,329.554 438.930,329.683 439.381,328.798 438.670,328.780 438.926,329.052 438.999,334.772 440.631,341.238 440.635,342.339 440.624,341.021 441.346,338.696 446.617,326.146 448.667,323.865 452.155,324.396 454.597,325.131 455.733,326.098 456.828,326.444 460.626,328.977 465.034,330.201 " />
        <!-- SceneLineItemBlock item_id: CrdtId(1, 64) -->
        <!-- Stroke tool: FINELINER_2 color: BLACK thickness_scale: 2.0 -->
        <polyline style="fill:none;stroke:0;stroke-width:2.0;opacity:1" stroke-linecap="round" points=""/>
        <polyline style="fill:none; stroke:rgb(0, 0, 0) ;stroke-width:5.573;opacity:1" stroke-linecap="round" points="177.649,391.953 177.275,392.562 179.527,391.999 181.199,392.075 184.570,391.580 187.249,391.698 187.431,392.013 188.432,392.260 " />
        <!-- SceneLineItemBlock item_id: CrdtId(1, 65) -->
        <!-- Stroke tool: FINELINER_2 color: BLACK thickness_scale: 2.0 -->
        <polyline style="fill:none;stroke:0;stroke-width:2.0;opacity:1" stroke-linecap="round" points=""/>
        <polyline style="fill:none; stroke:rgb(0, 0, 0) ;stroke-width:5.573;opacity:1" stroke-linecap="round" points="226.792,390.541 226.211,390.794 " />
        <!-- SceneLineItemBlock item_id: CrdtId(1, 66) -->
        <!-- Stroke tool: FINELINER_2 color: BLACK thickness_scale: 2.0 -->
        <polyline style="fill:none;stroke:0;stroke-width:2.0;opacity:1" stroke-linecap="round" points=""/>
        <polyline style="fill:none; stroke:rgb(0, 0, 0) ;stroke-width:5.573;opacity:1" stroke-linecap="round" points="235.827,389.384 235.266,388.764 232.442,388.067 232.067,388.597 232.324,388.323 232.346,388.560 233.116,388.709 234.300,390.976 235.685,394.937 235.931,396.945 236.116,401.518 235.865,405.000 234.182,413.522 234.820,414.358 234.669,414.189 235.918,414.057 236.981,413.201 237.981,413.037 241.042,411.313 241.943,410.643 244.665,407.228 " />
        <!-- SceneLineItemBlock item_id: CrdtId(1, 67) -->
        <!-- Stroke tool: FINELINER_2 color: BLACK thickness_scale: 2.0 -->
        <polyline style="fill:none;stroke:0;stroke-width:2.0;opacity:1" stroke-linecap="round" points=""/>
        <polyline style="fill:none; stroke:rgb(0, 0, 0) ;stroke-width:5.573;opacity:1" stroke-linecap="round" points="235.529,378.586 232.147,377.606 232.563,378.001 234.781,378.268 237.628,379.126 239.605,379.024 251.981,380.465 257.432,380.250 261.152,380.831 262.525,381.837 262.830,382.906 262.091,387.278 260.741,391.318 260.361,395.400 260.799,398.941 261.583,400.871 262.180,401.148 262.578,402.796 262.690,405.780 261.616,408.529 257.171,414.128 256.759,415.161 255.713,416.113 255.545,415.708 255.216,416.001 253.590,416.157 249.326,414.908 248.436,415.218 247.432,415.116 246.472,414.417 242.062,412.983 234.951,411.389 234.340,411.481 234.429,411.709 239.295,413.155 " />
        <!-- SceneLineItemBlock item_id: CrdtId(1, 68) -->
        <!-- Stroke tool: FINELINER_2 color: BLACK thickness_scale: 2.0 -->
        <polyline style="fill:none;stroke:0;stroke-width:2.0;opacity:1" stroke-linecap="round" points=""/>
        <polyline style="fill:none; stroke:rgb(0, 0, 0) ;stroke-width:5.573;opacity:1" stroke-linecap="round" points="293.796,381.596 293.356,381.232 292.488,381.306 291.727,382.658 291.374,384.420 291.460,386.697 295.804,402.087 298.060,407.776 297.561,408.059 296.925,407.571 297.309,407.073 297.868,403.661 " />
        <!-- SceneLineItemBlock item_id: CrdtId(1, 69) -->
        <!-- Stroke tool: FINELINER_2 color: BLACK thickness_scale: 2.0 -->
        <polyline style="fill:none;stroke:0;stroke-width:2.0;opacity:1" stroke-linecap="round" points=""/>
        <polyline style="fill:none; stroke:rgb(0, 0, 0) ;stroke-width:5.573;opacity:1" stroke-linecap="round" points="295.515,375.515 294.420,373.241 294.306,371.693 298.213,368.682 305.097,365.995 310.982,365.030 313.330,365.230 314.113,366.378 314.147,370.294 312.367,379.380 310.574,384.414 308.784,387.065 305.870,389.393 302.006,390.543 299.836,390.158 299.584,389.969 299.726,389.327 299.239,389.067 302.616,386.764 304.392,388.634 304.919,390.133 310.242,395.327 311.446,395.824 313.533,397.506 314.834,398.125 320.787,399.943 323.872,400.411 324.237,400.756 323.065,401.052 321.616,400.095 " />
        <!-- SceneLineItemBlock item_id: CrdtId(1, 70) -->
        <!-- Stroke tool: FINELINER_2 color: BLACK thickness_scale: 2.0 -->
        <polyline style="fill:none;stroke:0;stroke-width:2.0;opacity:1" stroke-linecap="round" points=""/>
        <polyline style="fill:none; stroke:rgb(0, 0, 0) ;stroke-width:5.573;opacity:1" stroke-linecap="round" points="333.157,399.096 333.619,398.962 334.088,399.254 336.931,398.889 336.142,399.003 336.736,398.712 338.111,398.588 339.179,398.065 342.383,397.536 344.087,396.530 344.097,395.570 343.610,394.764 341.813,393.904 339.309,393.631 336.975,394.057 334.978,394.906 331.965,397.870 331.565,399.031 332.309,400.675 335.364,403.018 338.088,404.029 339.557,404.147 341.113,404.701 346.898,405.217 350.272,405.204 353.101,404.742 " />
        <!-- SceneLineItemBlock item_id: CrdtId(1, 71) -->
        <!-- Stroke tool: FINELINER_2 color: BLACK thickness_scale: 2.0 -->
        <polyline style="fill:none;stroke:0;stroke-width:2.0;opacity:1" stroke-linecap="round" points=""/>
        <polyline style="fill:none; stroke:rgb(0, 0, 0) ;stroke-width:5.573;opacity:1" stroke-linecap="round" points="362.103,405.703 364.446,407.779 363.681,407.280 363.467,405.008 364.316,403.104 366.776,392.021 367.778,385.561 367.372,375.914 367.991,373.608 369.970,371.452 370.604,371.463 371.964,374.202 372.746,376.673 374.825,388.104 375.899,391.077 377.229,392.860 380.793,395.161 381.859,394.793 384.269,392.666 384.843,391.329 386.653,388.923 388.478,384.291 389.213,379.119 388.670,366.534 387.959,359.914 387.671,359.466 387.578,360.911 388.781,368.162 390.106,380.913 390.728,384.143 394.090,392.364 396.585,399.529 396.718,403.154 394.830,411.522 395.084,411.981 396.484,412.068 397.951,410.880 " />
        <!-- SceneLineItemBlock item_id: CrdtId(1, 72) -->
        <!-- Stroke tool: FINELINER_2 color: BLACK thickness_scale: 2.0 -->
        <polyline style="fill:none;stroke:0;stroke-width:2.0;opacity:1" stroke-linecap="round" points=""/>
        <polyline style="fill:none; stroke:rgb(0, 0, 0) ;stroke-width:5.573;opacity:1" stroke-linecap="round" points="425.442,399.918 426.249,397.563 426.112,397.261 425.344,397.352 423.287,396.824 418.878,396.894 414.837,397.884 411.365,400.023 409.720,402.161 409.317,403.478 409.385,405.233 409.874,406.092 410.975,406.957 413.126,407.597 417.583,407.003 420.772,405.960 424.234,403.935 425.703,402.496 426.714,400.958 427.401,398.210 427.038,397.310 426.166,397.830 425.348,401.825 425.747,404.475 427.115,406.413 429.812,407.867 433.352,408.278 434.348,408.124 437.132,406.770 " />
        <!-- SceneLineItemBlock item_id: CrdtId(1, 73) -->
        <!-- Stroke tool: FINELINER_2 color: BLACK thickness_scale: 2.0 -->
        <polyline style="fill:none;stroke:0;stroke-width:2.0;opacity:1" stroke-linecap="round" points=""/>
        <polyline style="fill:none; stroke:rgb(0, 0, 0) ;stroke-width:5.573;opacity:1" stroke-linecap="round" points="443.929,391.507 444.344,391.708 444.767,392.610 445.124,396.906 446.072,399.936 447.500,402.181 449.083,403.855 449.281,403.420 449.062,402.962 450.407,399.965 452.581,393.504 455.124,389.255 456.894,389.528 464.524,397.832 " />
        <!-- SceneLineItemBlock item_id: CrdtId(1, 74) -->
        <!-- Stroke tool: FINELINER_2 color: BLACK thickness_scale: 2.0 -->
        <polyline style="fill:none;stroke:0;stroke-width:2.0;opacity:1" stroke-linecap="round" points=""/>
        <polyline style="fill:none; stroke:rgb(0, 0, 0) ;stroke-width:5.573;opacity:1" stroke-linecap="round" points="479.636,365.882 482.224,363.138 482.794,362.241 482.797,361.442 482.531,361.214 481.727,361.436 481.237,362.200 481.388,368.523 482.055,373.170 483.783,382.119 487.550,395.483 488.405,396.935 488.493,397.767 488.505,397.559 488.845,397.969 490.313,397.887 496.062,393.060 " />
        <!-- SceneLineItemBlock item_id: CrdtId(1, 75) -->
        <!-- Stroke tool: FINELINER_2 color: BLACK thickness_scale: 2.0 -->
        <polyline style="fill:none;stroke:0;stroke-width:2.0;opacity:1" stroke-linecap="round" points=""/>
        <polyline style="fill:none; stroke:rgb(0, 0, 0) ;stroke-width:5.573;opacity:1" stroke-linecap="round" points="500.664,388.203 500.671,387.668 500.156,387.934 500.113,388.306 498.601,389.241 497.716,390.199 494.363,391.958 492.713,393.360 491.689,395.659 491.645,396.815 492.134,398.358 492.838,399.310 497.023,402.893 502.526,404.374 507.992,404.303 " />
        <!-- SceneLineItemBlock item_id: CrdtId(1, 76) -->
        <!-- Stroke tool: FINELINER_2 color: BLACK thickness_scale: 2.0 -->
        <polyline style="fill:none;stroke:0;stroke-width:2.0;opacity:1" stroke-linecap="round" points=""/>
        <polyline style="fill:none; stroke:rgb(0, 0, 0) ;stroke-width:5.573;opacity:1" stroke-linecap="round" points="533.533,392.148 533.137,392.284 533.103,392.861 " />
        <!-- SceneLineItemBlock item_id: CrdtId(1, 77) -->
        <!-- Stroke tool: FINELINER_2 color: BLACK thickness_scale: 2.0 -->
        <polyline style="fill:none;stroke:0;stroke-width:2.0;opacity:1" stroke-linecap="round" points=""/>
        <polyline style="fill:none; stroke:rgb(0, 0, 0) ;stroke-width:5.573;opacity:1" stroke-linecap="round" points="534.814,395.467 534.215,395.182 532.732,392.475 531.692,388.810 527.903,390.319 524.297,392.630 522.050,394.609 520.815,396.857 522.602,396.227 533.211,397.725 537.041,396.936 537.742,396.613 538.893,395.201 540.201,391.626 540.013,391.431 539.269,392.531 539.425,396.755 540.227,399.414 541.494,401.236 545.474,403.160 548.841,403.175 550.866,402.375 551.966,401.260 551.926,400.846 " />
        <!-- SceneLineItemBlock item_id: CrdtId(1, 78) -->
        <!-- Stroke tool: FINELINER_2 color: BLACK thickness_scale: 2.0 -->
        <polyline style="fill:none;stroke:0;stroke-width:2.0;opacity:1" stroke-linecap="round" points=""/>
        <polyline style="fill:none; stroke:rgb(0, 0, 0) ;stroke-width:5.573;opacity:1" stroke-linecap="round" points="570.300,391.670 568.436,391.174 568.097,391.691 568.108,394.377 568.709,397.100 570.740,400.385 571.698,400.918 572.297,400.844 571.593,399.416 571.713,394.937 572.262,391.513 572.894,390.269 572.648,391.563 571.253,394.018 571.157,393.765 " />
        <!-- SceneLineItemBlock item_id: CrdtId(1, 79) -->
        <!-- Stroke tool: FINELINER_2 color: BLACK thickness_scale: 2.0 -->
        <polyline style="fill:none;stroke:0;stroke-width:2.0;opacity:1" stroke-linecap="round" points=""/>
        <polyline style="fill:none; stroke:rgb(0, 0, 0) ;stroke-width:5.573;opacity:1" stroke-linecap="round" points="560.607,360.704 558.588,359.001 559.456,367.437 562.919,385.533 563.633,392.203 563.360,397.186 561.585,401.980 561.907,402.148 562.266,401.342 570.630,394.779 575.814,391.894 578.768,391.093 579.450,391.175 580.712,392.168 581.120,396.681 581.778,398.502 583.686,401.432 585.252,403.031 585.813,404.106 585.813,404.859 585.297,405.513 583.473,406.266 578.897,407.189 572.896,407.287 569.359,406.812 567.468,405.616 567.887,404.503 571.579,402.679 575.665,402.063 " />
        <!-- SceneLineItemBlock item_id: CrdtId(1, 80) -->
        <!-- Stroke tool: FINELINER_2 color: BLACK thickness_scale: 2.0 -->
        <polyline style="fill:none;stroke:0;stroke-width:2.0;opacity:1" stroke-linecap="round" points=""/>
        <polyline style="fill:none; stroke:rgb(0, 0, 0) ;stroke-width:5.573;opacity:1" stroke-linecap="round" points="601.223,369.644 599.533,368.444 599.216,366.061 600.066,363.819 601.798,362.393 603.428,363.339 604.432,364.787 605.914,369.355 606.774,378.283 607.718,396.925 608.720,404.367 608.311,405.691 612.672,403.821 614.159,402.646 615.239,401.240 " />
        <!-- SceneLineItemBlock item_id: CrdtId(1, 81) -->
        <!-- Stroke tool: FINELINER_2 color: BLACK thickness_scale: 2.0 -->
        <polyline style="fill:none;stroke:0;stroke-width:2.0;opacity:1" stroke-linecap="round" points=""/>
        <polyline style="fill:none; stroke:rgb(0, 0, 0) ;stroke-width:5.573;opacity:1" stroke-linecap="round" points="626.293,398.644 626.508,398.201 627.924,398.156 628.893,397.764 631.654,398.554 634.482,398.581 635.609,399.159 639.748,398.326 642.517,396.380 643.382,395.113 643.772,393.736 643.525,391.540 642.904,390.234 642.585,389.605 640.483,387.944 637.947,387.203 636.225,387.251 634.478,387.970 632.058,389.522 628.354,393.916 627.735,396.888 627.860,397.996 629.118,400.242 631.428,402.979 635.952,405.452 640.998,406.829 648.689,407.309 658.396,406.725 664.723,406.733 " />
        <!-- SceneLineItemBlock item_id: CrdtId(1, 82) -->
        <!-- Stroke tool: FINELINER_2 color: BLACK thickness_scale: 2.0 -->
        <polyline style="fill:none;stroke:0;stroke-width:2.0;opacity:1" stroke-linecap="round" points=""/>
        <polyline style="fill:none; stroke:rgb(0, 0, 0) ;stroke-width:5.573;opacity:1" stroke-linecap="round" points="233.192,272.445 233.763,272.432 233.842,271.908 235.686,272.202 237.821,270.835 242.866,265.502 243.283,264.141 243.107,263.220 241.391,262.056 241.966,262.642 241.126,264.257 235.913,269.647 232.471,273.724 225.782,282.707 222.407,285.996 221.008,286.716 221.244,286.162 225.069,283.888 227.848,281.809 " />
        <!-- SceneLineItemBlock item_id: CrdtId(1, 83) -->
        <!-- Stroke tool: FINELINER_2 color: BLACK thickness_scale: 2.0 -->
        <polyline style="fill:none;stroke:0;stroke-width:2.0;opacity:1" stroke-linecap="round" points=""/>
        <polyline style="fill:none; stroke:rgb(0, 0, 0) ;stroke-width:5.573;opacity:1" stroke-linecap="round" points="212.781,263.427 213.160,263.947 215.418,263.737 216.569,264.655 218.014,270.224 218.202,274.022 219.625,280.836 220.773,284.476 222.731,287.186 223.819,288.280 226.346,289.258 234.086,291.343 " />
        <!-- SceneLineItemBlock item_id: CrdtId(1, 84) -->
        <!-- Stroke tool: FINELINER_2 color: BLACK thickness_scale: 2.0 -->
        <polyline style="fill:none;stroke:0;stroke-width:2.0;opacity:1" stroke-linecap="round" points=""/>
        <polyline style="fill:none; stroke:rgb(0, 0, 0) ;stroke-width:5.573;opacity:1" stroke-linecap="round" points="252.158,325.348 244.251,330.837 243.242,332.279 241.347,333.578 238.884,336.190 234.796,341.795 230.881,346.215 219.390,358.182 219.976,358.114 221.549,356.768 " />
        <!-- SceneLineItemBlock item_id: CrdtId(1, 85) -->
        <!-- Stroke tool: FINELINER_2 color: BLACK thickness_scale: 2.0 -->
        <polyline style="fill:none;stroke:0;stroke-width:2.0;opacity:1" stroke-linecap="round" points=""/>
        <polyline style="fill:none; stroke:rgb(0, 0, 0) ;stroke-width:5.573;opacity:1" stroke-linecap="round" points="229.739,316.863 228.266,317.514 225.185,320.184 224.430,321.302 224.522,322.665 232.783,323.348 233.893,323.559 235.904,324.721 238.021,327.482 240.386,332.663 249.217,347.663 251.131,349.282 252.692,349.943 " />
        <!-- SceneLineItemBlock item_id: CrdtId(1, 86) -->
        <!-- Stroke tool: FINELINER_2 color: BLACK thickness_scale: 2.0 -->
        <polyline style="fill:none;stroke:0;stroke-width:2.0;opacity:1" stroke-linecap="round" points=""/>
        <polyline style="fill:none; stroke:rgb(0, 0, 0) ;stroke-width:5.573;opacity:1" stroke-linecap="round" points="257.148,391.431 253.169,391.805 251.325,392.813 " />
        <!-- SceneLineItemBlock item_id: CrdtId(1, 87) -->
        <!-- Stroke tool: FINELINER_2 color: BLACK thickness_scale: 2.0 -->
        <polyline style="fill:none;stroke:0;stroke-width:2.0;opacity:1" stroke-linecap="round" points=""/>
        <polyline style="fill:none; stroke:rgb(0, 0, 0) ;stroke-width:5.573;opacity:1" stroke-linecap="round" points="253.464,393.306 255.143,390.752 253.568,391.887 251.018,396.671 247.023,408.644 244.299,414.768 242.980,417.028 240.386,420.192 236.078,423.237 234.992,423.833 233.594,424.088 233.492,423.572 234.166,422.248 " />
        <!-- SceneLineItemBlock item_id: CrdtId(1, 88) -->
        <!-- Stroke tool: FINELINER_2 color: BLACK thickness_scale: 2.0 -->
        <polyline style="fill:none;stroke:0;stroke-width:2.0;opacity:1" stroke-linecap="round" points=""/>
        <polyline style="fill:none; stroke:rgb(0, 0, 0) ;stroke-width:5.573;opacity:1" stroke-linecap="round" points="236.370,390.078 235.865,387.102 236.873,381.781 238.132,380.697 239.602,381.358 241.406,383.365 245.128,390.825 248.684,401.213 251.777,407.172 252.601,409.357 256.217,411.972 258.242,412.289 258.825,411.923 260.731,411.617 " />

        <!-- clickable rect to flip pages -->
        <rect x="0" y="0" width="1404" height="1872" fill-opacity="0"/>
    </g>
</svg>
