<?xml version="1.0" encoding="UTF-8"?>
<!DOCTYPE svg PUBLIC "-//W3C//DTD SVG 1.1//EN" "http://www.w3.org/Graphics/SVG/1.1/DTD/svg11.dtd">
<svg version="1.1" xmlns="http://www.w3.org/2000/svg" xmlns:xlink="http://www.w3.org/1999/xlink" x="0" y="0" width="1075.2" height="1433.6" viewBox="0, 0, 768, 1024">
  <g id="Layer_1">
    <g>
      <path d="M235.5,274.5 C176.406,274.5 128.5,240.25 128.5,198 C128.5,155.75 176.406,121.5 235.5,121.5 C294.594,121.5 342.5,155.75 342.5,198 C342.5,240.25 294.594,274.5 235.5,274.5 z" fill="#FFFFFF"/>
      <path d="M235.5,274.5 C176.406,274.5 128.5,240.25 128.5,198 C128.5,155.75 176.406,121.5 235.5,121.5 C294.594,121.5 342.5,155.75 342.5,198 C342.5,240.25 294.594,274.5 235.5,274.5 z" fill-opacity="0" stroke="#000000" stroke-width="1"/>
    </g>
    <g>
      <path d="M303.131,600.739 L331.085,437.755 L212.67,322.328 L376.315,298.549 L449.5,150.261 L522.685,298.549 L686.33,322.328 L567.915,437.755 L595.869,600.739 L449.5,523.788 z" fill="#FFFFFF"/>
      <path d="M303.131,600.739 L331.085,437.755 L212.67,322.328 L376.315,298.549 L449.5,150.261 L522.685,298.549 L686.33,322.328 L567.915,437.755 L595.869,600.739 L449.5,523.788 z" fill-opacity="0" stroke="#000000" stroke-width="1"/>
    </g>
  </g>
</svg>
